<svg xmlns="http://www.w3.org/2000/svg" width="1126" height="210" fill="none"><g clip-path="url(#a)"><mask id="b" width="1126" height="210" x="0" y="0" maskUnits="userSpaceOnUse" style="mask-type:luminance"><path fill="#fff" d="M1126 0H0v210h1126V0Z"/></mask><g mask="url(#b)"><mask id="c" width="214" height="214" x="-4" y="-4" maskUnits="userSpaceOnUse" style="mask-type:luminance"><path fill="#fff" d="M210-4H-4v214h214V-4Z"/></mask><g mask="url(#c)"><path fill="#F60" stroke="#fff" stroke-width=".1" d="M210 .5H.5V210H210V.5Z"/><path fill="#fff" d="M77.6 46.2 103 99l25.4-52.8h21.8L111.9 118v46.3H94.1V118L55.8 46.2h21.8Z"/></g><path fill="#000" d="M333.4 151h-22.5v-38.4h-33.3V151h-22.5V63.8h22.5v31.9H311v-32h22.5V151Zm61-17.2v-13.7l-9.3 1c-3.3.4-5.8.9-7.6 1.4-2 .7-3.7 1.7-4.8 3-1.1 1.2-1.7 2.9-1.7 5 0 1.3.1 2.4.4 3.3a5 5 0 0 0 1.7 2.4c1 .8 2 1.4 3.3 1.8 1.2.3 3.2.5 5.8.5a20 20 0 0 0 12.1-4.7Zm0 10.2a221 221 0 0 1-4.3 3.1 28.9 28.9 0 0 1-11.2 5c-2.2.4-4.6.7-7.3.7-6.2 0-11.5-2-15.7-5.8a19.2 19.2 0 0 1-6.3-14.9c0-4.8 1-8.7 3.2-11.7s5.2-5.5 9.1-7.3c4-1.7 8.8-3 14.6-3.7a254 254 0 0 1 18-1.6v-.4c0-3.6-1.5-6.1-4.5-7.5-3-1.4-7.3-2.1-13.1-2.1a37 37 0 0 0-11.1 1.9c-4 1.2-6.8 2.1-8.5 2.8h-2V86.6a121 121 0 0 1 26-3.3c12 0 20.6 1.9 26 5.6 5.3 3.7 8 9.4 8 17.3V151h-21v-7Zm74.5 8.8a57 57 0 0 1-15.7-2 34.7 34.7 0 0 1-12.4-6.4 28.7 28.7 0 0 1-8-10.8c-2-4.3-3-9.4-3-15.2a38 38 0 0 1 3.1-16c2-4.4 5-8 8.6-11a35 35 0 0 1 12.3-6 54 54 0 0 1 37.5 3.3v18h-3a113 113 0 0 0-3-2.5 25.4 25.4 0 0 0-9.4-4.9c-2-.6-4.2-.9-6.7-.9-5.6 0-10 1.8-13 5.4-3 3.6-4.5 8.4-4.5 14.6 0 6.3 1.5 11.1 4.6 14.4 3.1 3.3 7.5 4.9 13.2 4.9a26.7 26.7 0 0 0 12.5-3 62.8 62.8 0 0 0 6.3-5h3v18a56 56 0 0 1-22.4 5Zm106.3-1.8h-24.6l-18.4-28.7-5.8 7V151h-21V59.8h21v54.5l22.8-29.1h24.3l-23.7 28.4 25.4 37.4Zm75.4-29h-48.2c.3 5.2 2.2 9.1 5.8 11.8 3.7 2.8 9 4.1 16 4.1a40.5 40.5 0 0 0 22.9-7.6h2.3v17a70.3 70.3 0 0 1-27.5 5.4c-13.2 0-23.3-3-30.3-8.8-7-6-10.6-14.4-10.6-25.4a34 34 0 0 1 10-25.8 38.1 38.1 0 0 1 27.4-9.6c10.7 0 18.8 2.8 24.2 8.2 5.3 5.4 8 13.2 8 23.3v7.4Zm-21-12.4c0-4.4-1.1-7.7-3.2-10-2-2.2-5.3-3.3-9.7-3.3-4 0-7.4 1-10 3.2-2.6 2.1-4 5.5-4.4 10.1h27.4Zm83.6-4.3h-1.9a65.9 65.9 0 0 0-17.3-.4c-2.2.4-4.7 1.1-7.4 2V151h-21V85.2h21v9.7c4.7-4 8.7-6.7 12.1-8a26.5 26.5 0 0 1 14.5-1.7v20.1ZM846.7 151H825l-37-59.9V151h-20.6V63.8h26.9l31.8 50v-50h20.6V151Zm85.9-29h-48.3c.3 5.2 2.3 9.1 5.9 11.8 3.6 2.8 9 4.1 16 4.1a40.5 40.5 0 0 0 22.9-7.6h2.3v17a70.3 70.3 0 0 1-27.5 5.4c-13.2 0-23.3-3-30.4-8.8-7-6-10.5-14.4-10.5-25.4a34 34 0 0 1 10-25.8 38.1 38.1 0 0 1 27.4-9.6c10.7 0 18.7 2.8 24.1 8.2 5.4 5.4 8 13.2 8 23.3v7.4Zm-21-12.4c-.1-4.4-1.2-7.7-3.3-10-2-2.2-5.3-3.3-9.6-3.3-4.1 0-7.4 1-10 3.2-2.7 2.1-4.1 5.5-4.4 10.1h27.3Zm140.8-24.4L1032 151h-22.4l-13.4-44.4L983 151h-22.6l-20.2-65.8h22.1l11.3 45.4 14-45.4h18.7l13.4 45.4 11-45.4h21.7Zm69.8 45c0 6.7-3 12.2-9.1 16.4a44 44 0 0 1-25 6.2 71.3 71.3 0 0 1-27.5-5.3v-17.3h2l3.6 2.5a50.2 50.2 0 0 0 13.4 5.2c2.7.5 5.7.9 8.8.9 4.2 0 7.3-.5 9.3-1.4 2-1 3-2.3 3-4 0-1.7-.7-2.8-1.8-3.6-1.2-.7-3.4-1.4-6.7-2-1.6-.4-3.7-.8-6.4-1.2-2.6-.4-5-1-7.3-1.5a26 26 0 0 1-13.3-7.3 18.2 18.2 0 0 1-4.3-12.3c0-6.4 3-11.6 9-15.8 6-4.2 14.2-6.3 24.6-6.3a63.9 63.9 0 0 1 24.7 4.7v16.6h-1.8a42.2 42.2 0 0 0-22.9-7.3c-3.3 0-6.2.5-8.6 1.5-2.3.9-3.4 2.2-3.4 4 0 1.5.5 2.7 1.6 3.5 1 .8 3.5 1.7 7.4 2.5l7 1.3c2.4.4 5 .9 7.4 1.5 5.6 1.4 9.7 3.7 12.3 6.8 2.7 3.1 4 7 4 11.6Z"/></g></g><defs><clipPath id="a"><path fill="#fff" d="M0 0h1126v210H0z"/></clipPath></defs></svg>