<svg xmlns="http://www.w3.org/2000/svg" width="291" height="79.5"><path fill="#069" d="M213.9 7.2c0-3 2.5-5.4 5.6-5.4H284c3 0 5.6 2.4 5.6 5.4v65.4c0 3-2.6 5.4-5.6 5.4h-64.6a5.5 5.5 0 0 1-5.6-5.4V7.2z"/><path fill-rule="evenodd" d="M1.8 65.7h31.6V55.3H13.2V15.7H1.8v50zm47.6 0V31.2H38v34.5h11.4zm-5.7-39.2c4 0 6.5-2.6 6.5-6-.1-3.3-2.5-5.9-6.4-5.9-4 0-6.5 2.6-6.5 6 0 3.3 2.5 6 6.3 6zm11 39.2h11.5V46.4c0-1 0-2 .3-2.8.9-2 2.8-4.2 6-4.2 4 0 5.7 3.2 5.7 7.8v18.5h11.5V45.9c0-10.6-5.7-15.5-13.2-15.5-6.2 0-8.9 3.5-10.4 5.8v-5H54.8c.2 3.3 0 34.5 0 34.5zm51.1-50H94.4v50h11.4V54.5l2.9-3.6 9 14.8h14l-15-21.4 13.1-14.6H116s-9.4 13-10.2 14.6V15.7z"/><path fill-rule="evenodd" d="M162.3 51.3c.2-.9.4-2.6.4-4.5 0-9-4.5-18-16.4-18-12.8 0-18.6 10.1-18.6 19.2 0 11.3 7.1 18.4 19.6 18.4 5 0 9.6-.7 13.4-2.3l-1.6-7.5c-3 1-6.2 1.5-10.1 1.5-5.4 0-10-2.2-10.4-6.9h23.7zm-23.8-7.8c.3-2.9 2.3-7.2 7.2-7.2 5.2 0 6.4 4.6 6.4 7.2h-13.6zM191 15.7V33h-.2c-1.7-2.5-5.1-4-9.7-4-8.8 0-16.6 7-16.5 19 0 11.2 7 18.5 15.7 18.5 4.8 0 9.3-2.1 11.5-6h.3l.4 5.2h10.2c-.2-2.5-.3-6.7-.3-10.8V15.7h-11.5zm0 34c0 .9-.1 1.8-.3 2.5a6.7 6.7 0 0 1-6.7 5.4c-4.7 0-7.8-3.8-7.8-9.9 0-5.6 2.6-10.2 7.9-10.2 3.5 0 6 2.4 6.7 5.5l.1 2v4.7z"/><path fill="#fff" fill-rule="evenodd" d="M236.9 65.6V31.2h-11.5v34.4H237zM231 26.5c4 0 6.5-2.7 6.5-6s-2.5-6-6.4-6c-4 0-6.5 2.7-6.5 6s2.5 6 6.4 6zm12.2 39.1h11.4V46.4c0-1 .1-2 .4-2.8.8-2 2.7-4.2 5.9-4.2 4.1 0 5.8 3.2 5.8 7.8v18.4H278V46c0-10.6-5.6-15.5-13.2-15.5-6.1 0-8.8 3.4-10.3 5.8v-5h-11.4v34.4z"/></svg>