<svg xmlns="http://www.w3.org/2000/svg" id="Layer_1" viewBox="0 0 1025 240"><style>.st0{fill:#da552f}</style><g id="Page-1"><g id="product-hunt-logo-horizontal-orange"><path id="Fill-1" d="M240 120a120 120 0 1 1-240 0 120 120 0 0 1 240 0" class="st0"/><path id="Fill-3" fill="#fff" d="M136 120h-34V84h34a18 18 0 1 1 0 36m0-60H78v120h24v-36h34a42 42 0 1 0 0-84"/><path id="Fill-5" d="M366 105c0-6-5-10-12-10h-17v21h17c7 0 12-4 12-11zm-46 55V80h37c17 0 26 12 26 25 0 14-9 25-26 25h-20v30h-17z" class="st0"/><path id="Fill-7" d="M393 160v-58h15v7c4-4 11-9 19-9v15h-5c-5 0-11 2-14 6v39h-15z" class="st0"/><path id="Fill-9" d="M477 130c0-9-5-16-15-16-9 0-14 7-14 16s5 17 14 17c10 0 15-8 15-17m-45 0c0-16 11-30 30-30s30 14 30 30-11 30-30 30-30-14-30-30" class="st0"/><path id="Fill-11" d="M543 140v-20c-3-4-8-6-13-6-9 0-15 6-15 16s6 17 15 17c5 0 10-3 13-7zm0 20v-9c-5 6-11 9-18 9-14 0-25-11-25-30 0-18 11-30 25-30 7 0 13 3 18 9V80h15v80h-15z" class="st0"/><path id="Fill-13" d="M611 160v-9c-4 5-11 9-20 9-12 0-18-7-18-18v-40h15v34c0 8 4 11 10 11s11-4 13-7v-38h15v58h-15z" class="st0"/><path id="Fill-15" d="M637 130c0-17 13-30 30-30 12 0 19 5 23 11l-10 9c-3-4-7-6-12-6-9 0-15 6-15 16s6 17 15 17c5 0 9-3 12-6l10 9c-4 5-11 10-23 10-17 0-30-12-30-30" class="st0"/><path id="Fill-17" d="M703 144v-29h-10v-13h10V86h15v16h11v13h-11v25c0 4 2 7 5 7l5-2 3 11c-2 2-6 4-12 4-11 0-16-5-16-16" class="st0"/><path id="Fill-19" d="M825 160v-34h-37v34h-17V80h17v31h37V80h17v80h-17z" class="st0"/><path id="Fill-21" d="M896 160v-9c-4 5-11 9-20 9-13 0-19-7-19-18v-40h15v34c0 8 4 11 11 11 5 0 10-4 13-7v-38h15v58h-15z" class="st0"/><path id="Fill-23" d="M964 160v-36c0-8-4-10-11-10-6 0-10 3-13 6v40h-15v-58h15v7c4-4 11-9 20-9 13 0 19 7 19 18v42h-15z" class="st0"/><path id="Fill-25" d="M997 144v-29h-10v-13h10V86h15v16h11v13h-11v25c0 4 2 7 5 7l5-2 3 11c-2 2-6 4-12 4-11 0-16-5-16-16" class="st0"/></g></g></svg>