<svg xmlns="http://www.w3.org/2000/svg" xml:space="preserve" id="Layer_1" x="0" y="0" version="1.1" viewBox="0 0 2500 810"><style>.st0{fill:#ff4500}</style><circle cx="406.6" cy="405.6" r="402.3" class="st0"/><path fill="#fff" d="M675 406a59 59 0 0 0-99-41c-46-31-100-48-155-49l26-126 86 18a40 40 0 1 0 5-24l-98-20c-7-1-14 3-15 10l-30 139c-56 1-111 18-157 50a59 59 0 1 0-65 96v18c0 90 105 163 235 163s234-73 234-163v-18c21-10 33-31 33-53zm-402 40a40 40 0 0 1 80 0 40 40 0 0 1-80 0zm233 111c-28 21-63 32-99 31-36 1-71-10-100-31-3-5-3-12 2-16 4-3 10-3 14 0 24 18 54 27 84 26 30 1 59-7 84-25 4-4 11-4 16 0s4 12-1 16v-1zm-7-69a40 40 0 0 1 0-81c22 0 40 18 40 40 1 23-16 41-38 42h-2v-1z"/><circle cx="2248.8" cy="228.1" r="54.8" class="st0"/><path d="M1472 461c21 2 40-14 41-35l1-4-3-23c-13-69-73-120-143-123-80 0-147 74-147 165s66 164 147 164c43 2 85-16 114-48a32 32 0 0 0-5-47c-13-8-30-6-41 4a98 98 0 0 1-68 29c-44-3-80-38-84-82h188zm-104-123c38 3 71 30 80 69h-161c9-39 42-66 81-69zm-144-30c0-15-12-28-27-30-41-7-83 8-110 40v-4a31 31 0 1 0-62 0v253c-1 17 12 31 29 32a31 31 0 0 0 33-32V437a94 94 0 0 1 102-98h6c17-2 29-15 29-31zm1056 33a31 31 0 1 0-62 0v226a31 31 0 1 0 62 0V341zm-456-171c0-17-14-31-31-31s-31 14-31 31v138c-21-21-49-33-79-32-80 0-147 74-147 164s66 165 147 165c30 1 59-11 80-32a31 31 0 0 0 61-6V170zm-141 374c-47 0-86-46-86-103s38-103 86-103 86 46 86 103-38 103-86 103zm463-374c0-17-14-31-31-31s-31 14-31 31v138c-21-21-49-33-79-32-80 0-147 74-147 164s66 165 147 165c30 1 59-11 81-32a31 31 0 0 0 60-6V170zm-141 374c-47 0-86-46-86-103s39-103 86-103c48 0 86 46 86 103s-38 103-86 103zm435 23V338h26c15 1 28-10 29-25v-2c1-15-10-28-24-29h-31v-42c0-17-13-31-29-32-17-2-32 11-33 28v47h-27c-15-1-27 10-28 25v2c-2 14 9 27 24 29h29v228c0 17 14 31 31 31 17 1 31-12 33-29v-2z"/></svg>