<?xml version="1.0" standalone="no"?>
<!DOCTYPE svg PUBLIC "-//W3C//DTD SVG 20010904//EN"
 "http://www.w3.org/TR/2001/REC-SVG-20010904/DTD/svg10.dtd">
<svg version="1.0" xmlns="http://www.w3.org/2000/svg"
 width="2048.000000pt" height="2048.000000pt" viewBox="0 0 2048.000000 2048.000000"
 preserveAspectRatio="xMidYMid meet">
<metadata>
Created by potrace 1.14, written by Peter Selinger 2001-2017
</metadata>
<g transform="translate(0.000000,2048.000000) scale(0.100000,-0.100000)"
fill="#000000" stroke="none">
<path d="M2995 20473 c-1286 -52 -2403 -887 -2825 -2110 -91 -264 -143 -540
-161 -858 -7 -131 -9 -2434 -7 -7405 4 -6765 5 -7223 21 -7340 100 -724 378
-1309 860 -1807 501 -518 1152 -839 1887 -930 138 -17 484 -18 7460 -18 7793
0 7384 -2 7670 46 1078 184 1996 951 2384 1992 81 218 141 470 173 727 17 138
18 484 18 7460 0 7793 2 7384 -46 7670 -141 826 -634 1581 -1339 2049 -483
320 -979 486 -1560 521 -145 9 -14322 12 -14535 3z m10265 -4217 c312 -35 606
-87 885 -157 1254 -313 2582 -1049 3926 -2175 175 -147 236 -213 289 -315 106
-204 108 -428 4 -638 -78 -159 -225 -289 -392 -347 -144 -50 -283 -53 -432
-10 -105 30 -187 79 -320 192 -622 527 -1258 971 -1866 1305 -990 543 -1991
810 -2855 760 -610 -35 -1089 -169 -1689 -472 -333 -168 -583 -318 -1250 -749
-630 -407 -863 -547 -1205 -720 -895 -454 -1726 -611 -2593 -489 -840 118
-1754 451 -2542 927 -377 228 -892 606 -1014 744 -61 69 -132 213 -152 308
-22 102 -14 270 16 360 97 290 336 472 640 487 197 10 334 -43 540 -208 380
-306 731 -528 1164 -739 501 -244 1005 -404 1536 -487 179 -28 599 -25 774 5
321 56 619 158 968 333 310 155 566 309 1173 704 800 521 1182 737 1695 959
559 243 1121 383 1740 436 167 14 791 5 960 -14z m-340 -4086 c443 -20 859
-83 1290 -196 1161 -303 2363 -953 3600 -1944 411 -330 497 -414 560 -545 223
-468 -111 -1005 -626 -1005 -200 0 -333 56 -534 226 -2010 1701 -3877 2360
-5495 1939 -294 -76 -593 -194 -920 -360 -331 -169 -535 -292 -1230 -740 -766
-494 -1113 -693 -1530 -875 -795 -348 -1591 -454 -2390 -319 -1177 199 -2333
734 -3303 1528 -213 174 -302 346 -302 581 0 391 309 700 700 700 181 0 313
-51 481 -187 600 -483 1223 -827 1894 -1046 425 -139 802 -213 1130 -224 469
-15 893 89 1420 347 300 147 578 313 1155 688 714 466 1027 650 1450 856 760
369 1489 555 2270 579 47 2 101 4 120 5 19 1 136 -3 260 -8z m235 -4120 c1295
-112 2631 -657 4000 -1632 472 -336 1053 -805 1140 -920 351 -464 24 -1128
-555 -1128 -191 0 -323 57 -525 226 -1490 1247 -2815 1908 -4100 2046 -73 8
-243 13 -435 12 -264 0 -341 -4 -475 -22 -677 -91 -1251 -321 -2068 -829 -94
-59 -332 -210 -527 -336 -634 -410 -883 -560 -1195 -723 -492 -256 -967 -423
-1420 -499 -266 -45 -337 -50 -680 -50 -366 0 -465 9 -790 70 -1048 198 -2050
647 -2940 1318 -340 256 -407 321 -475 462 -131 273 -78 587 135 800 89 89
159 135 264 171 189 66 402 47 570 -49 30 -17 111 -76 180 -131 792 -632 1672
-1040 2586 -1200 636 -111 1176 -16 1865 329 296 148 521 283 1140 685 217
141 472 304 565 362 1083 672 1970 985 2971 1048 164 10 599 4 769 -10z"/>
</g>
</svg>
